<?xml version="1.0" standalone="no"?>
<!DOCTYPE svg PUBLIC "-//W3C//DTD SVG 20010904//EN"
 "http://www.w3.org/TR/2001/REC-SVG-20010904/DTD/svg10.dtd">
<svg version="1.0" xmlns="http://www.w3.org/2000/svg"
 width="600.000000pt" height="600.000000pt" viewBox="0 0 600.000000 600.000000"
 preserveAspectRatio="xMidYMid meet">
<metadata>
Created by potrace 1.16, written by Peter Selinger 2001-2019
</metadata>
<g transform="translate(0.000000,600.000000) scale(0.100000,-0.100000)"
fill="#000000" stroke="none">
<path d="M2568 5664 c-161 -29 -287 -103 -374 -219 -86 -116 -105 -273 -52
-444 17 -56 73 -181 81 -181 4 0 162 61 164 64 2 2 -11 33 -28 69 -61 132 -77
263 -40 342 42 91 161 168 290 187 l72 11 -6 61 c-9 92 -15 126 -23 125 -4 0
-42 -7 -84 -15z"/>
<path d="M3171 4579 c-47 -24 -93 -80 -112 -136 -7 -21 -10 -70 -7 -122 4 -71
10 -96 35 -146 60 -116 133 -160 269 -160 75 0 87 3 160 40 105 54 139 100
139 189 0 118 -101 263 -225 324 -77 38 -195 43 -259 11z m302 -333 c23 -5 27
-12 27 -41 0 -18 -4 -37 -10 -40 -5 -3 -10 3 -10 13 0 15 -5 19 -20 15 -23 -6
-27 -33 -5 -33 8 0 15 -9 15 -20 0 -25 -60 -38 -97 -21 -14 6 -40 9 -59 5 -33
-6 -34 -5 -34 24 0 17 -4 33 -10 37 -15 9 -2 29 31 49 34 20 119 36 134 26 6
-4 22 -10 38 -14z"/>
<path d="M1810 4079 c-118 -47 -200 -185 -200 -338 0 -115 33 -205 94 -259
118 -103 385 -2 451 171 38 101 -2 257 -90 350 -68 71 -181 105 -255 76z"/>
<path d="M3210 3763 c-157 -28 -609 -192 -821 -299 -155 -77 -186 -123 -138
-200 80 -129 279 -213 479 -200 118 7 192 26 295 76 237 114 386 343 355 548
-12 74 -58 94 -170 75z"/>
</g>
</svg>
